<?xml version="1.0" encoding="utf-8"?>
<!-- Generator: Adobe Illustrator 21.1.0, SVG Export Plug-In . SVG Version: 6.00 Build 0)  -->
<svg version="1.1" id="Capa_1" xmlns="http://www.w3.org/2000/svg" xmlns:xlink="http://www.w3.org/1999/xlink" x="0px" y="0px"
	 viewBox="0 0 512 512" style="enable-background:new 0 0 512 512;" xml:space="preserve">
<style type="text/css">
	.st0{opacity:0.8;fill:url(#SVGID_1_);enable-background:new    ;}
	.st1{enable-background:new    ;}
	.st2{fill:#FFFFFF;}
</style>
<linearGradient id="SVGID_1_" gradientUnits="userSpaceOnUse" x1="496.1406" y1="-566.4823" x2="850.8993" y2="-211.7235" gradientTransform="matrix(-0.7071 0.7071 0.7071 0.7071 1007.4553 54.8886)">
	<stop  offset="0" style="stop-color:#DAF8FF"/>
	<stop  offset="0.9987" style="stop-color:#B3D4FC"/>
</linearGradient>
<circle class="st0" cx="256.1" cy="256" r="250.9"/>
<g class="st1">
	<g>
		<path class="st2" d="M332.6,316.2l71.1-53.1c4.5-3.3,4.5-10.8,0-14.2l-71.1-53.1c-3-2.2-7.1-2.4-10.2-0.3
			c-3.1,2.1-4.7,5.9-3.7,9.5l6.1,24.4H114c-4.9,0-8.9,4-8.9,8.9v35.4c0,4.9,4,8.9,8.9,8.9h210.8l-6.1,24.4c-1,3.6,0.6,7.4,3.7,9.5
			C325.5,318.6,329.6,318.5,332.6,316.2L332.6,316.2z"/>
	</g>
</g>
</svg>
