<?xml version="1.0" encoding="utf-8"?>
<!-- Generator: Adobe Illustrator 21.1.0, SVG Export Plug-In . SVG Version: 6.00 Build 0)  -->
<svg version="1.1" id="Icons" xmlns="http://www.w3.org/2000/svg" xmlns:xlink="http://www.w3.org/1999/xlink" x="0px" y="0px"
	 viewBox="0 0 512 512" style="enable-background:new 0 0 512 512;" xml:space="preserve">
<style type="text/css">
	.st0{opacity:0.9;fill:url(#SVGID_1_);enable-background:new    ;}
	.st1{fill:url(#SVGID_2_);enable-background:new    ;}
	.st2{fill:#FFFFFF;}
</style>
<linearGradient id="SVGID_1_" gradientUnits="userSpaceOnUse" x1="256" y1="-9.094947e-13" x2="256" y2="512" gradientTransform="matrix(6.123234e-17 1 1 -6.123234e-17 0 0)">
	<stop  offset="0" style="stop-color:#DAF8FF"/>
	<stop  offset="0.9987" style="stop-color:#B3D4FC"/>
</linearGradient>
<circle class="st0" cx="256" cy="256" r="256"/>
<linearGradient id="SVGID_2_" gradientUnits="userSpaceOnUse" x1="256" y1="3.051758e-05" x2="256" y2="342.592" gradientTransform="matrix(6.123234e-17 1 1 -6.123234e-17 0 0)">
	<stop  offset="0" style="stop-color:#DAF8FF;stop-opacity:0.5"/>
	<stop  offset="0.9987" style="stop-color:#FFFFFF;stop-opacity:0.2"/>
</linearGradient>
<path class="st1" d="M320.7,345.3l21.9-89.3l-21.9-89.3L11.8,178.9C4.1,203.2,0,229.1,0,256s4.1,52.8,11.8,77.1L320.7,345.3z"/>
<path class="st2" d="M395.1,242.9l-60.7-69.6c-7.3-8.3-19.9-9.2-28.2-1.9s-9.2,19.9-1.9,28.2l31.8,36.4H132c-11,0-20,9-20,20
	c0,11,9,20,20,20h204.1l-31.8,36.4c-7.3,8.3-6.4,21,1.9,28.2c3.8,3.3,8.5,4.9,13.1,4.9c5.6,0,11.1-2.3,15.1-6.9l60.7-69.6
	C401.7,261.6,401.7,250.4,395.1,242.9L395.1,242.9z"/>
</svg>
