<?xml version="1.0" encoding="utf-8"?>
<!-- Generator: Adobe Illustrator 21.1.0, SVG Export Plug-In . SVG Version: 6.00 Build 0)  -->
<svg version="1.1" id="Layer_1" xmlns="http://www.w3.org/2000/svg" xmlns:xlink="http://www.w3.org/1999/xlink" x="0px" y="0px"
	 viewBox="0 0 831 612" style="enable-background:new 0 0 831 612;" xml:space="preserve">
<style type="text/css">
	.st0{fill:url(#SVGID_1_);}
	.st1{opacity:0.39;fill:url(#SVGID_2_);enable-background:new    ;}
	.st2{opacity:0.39;fill:url(#SVGID_3_);enable-background:new    ;}
	.st3{opacity:0.39;fill:url(#SVGID_4_);enable-background:new    ;}
	.st4{opacity:0.39;fill:url(#SVGID_5_);enable-background:new    ;}
	.st5{opacity:0.39;fill:url(#SVGID_6_);enable-background:new    ;}
</style>
<g>
	
		<linearGradient id="SVGID_1_" gradientUnits="userSpaceOnUse" x1="186" y1="332.1177" x2="788.5061" y2="332.1177" gradientTransform="matrix(1 0 0 -1 0 702)">
		<stop  offset="0" style="stop-color:#DAF8FF"/>
		<stop  offset="0.9987" style="stop-color:#B3D4FC"/>
	</linearGradient>
	<path class="st0" d="M187.6,391.4C201.9,272.5,315.7,183.1,423,156c22.9-5.7,91.5-22.1,170.7,5.2c85.1,29.3,184.4,109.6,194,227.6
		c5.5,67.7-16.7,172.1-82.8,199.2c-87.2,35.7-159.8-100.4-300-77.6C323,523.7,293.6,579,247.2,559.5
		C197,538.3,180.3,452.1,187.6,391.4z"/>
	
		<linearGradient id="SVGID_2_" gradientUnits="userSpaceOnUse" x1="197.4939" y1="325.5497" x2="800" y2="325.5497" gradientTransform="matrix(1 0 0 -1 0 702)">
		<stop  offset="0" style="stop-color:#DAF8FF"/>
		<stop  offset="0.9987" style="stop-color:#B3D4FC"/>
	</linearGradient>
	<path class="st1" d="M199.1,397.9C213.4,279,327.2,189.6,434.5,162.5c22.9-5.7,91.5-22.1,170.7,5.2
		c85.1,29.3,184.4,109.6,194,227.6c5.5,67.7-16.7,172.1-82.8,199.2c-87.2,35.7-159.8-100.4-300-77.6
		c-81.9,13.4-111.3,68.7-157.8,49.2C208.5,544.9,191.8,458.7,199.1,397.9z"/>
</g>
<linearGradient id="SVGID_3_" gradientUnits="userSpaceOnUse" x1="979.6172" y1="-638.8112" x2="1023.6705" y2="-594.7578" gradientTransform="matrix(-0.7071 0.7071 0.7071 0.7071 1399.4906 -107.4958)">
	<stop  offset="0" style="stop-color:#DAF8FF"/>
	<stop  offset="0.9987" style="stop-color:#B3D4FC"/>
</linearGradient>
<circle class="st2" cx="255.1" cy="164.7" r="31.2"/>
<linearGradient id="SVGID_4_" gradientUnits="userSpaceOnUse" x1="1203.2772" y1="-698.5623" x2="1269.3217" y2="-632.5178" gradientTransform="matrix(-0.7071 0.7071 0.7071 0.7071 1399.4906 -107.4958)">
	<stop  offset="0" style="stop-color:#DAF8FF"/>
	<stop  offset="0.9987" style="stop-color:#B3D4FC"/>
</linearGradient>
<circle class="st3" cx="54.7" cy="296.1" r="46.7"/>
<linearGradient id="SVGID_5_" gradientUnits="userSpaceOnUse" x1="738.8933" y1="-573.6377" x2="760.9202" y2="-551.6107" gradientTransform="matrix(-0.7071 0.7071 0.7071 0.7071 1399.4906 -107.4958)">
	<stop  offset="0" style="stop-color:#DAF8FF"/>
	<stop  offset="0.9987" style="stop-color:#B3D4FC"/>
</linearGradient>
<circle class="st4" cx="471.4" cy="24.9" r="15.6"/>
<linearGradient id="SVGID_6_" gradientUnits="userSpaceOnUse" x1="575.4311" y1="-322.4485" x2="663.5374" y2="-234.3422" gradientTransform="matrix(-0.7071 0.7071 0.7071 0.7071 1399.4906 -107.4958)">
	<stop  offset="0" style="stop-color:#DAF8FF"/>
	<stop  offset="0.9987" style="stop-color:#B3D4FC"/>
</linearGradient>
<circle class="st5" cx="764.6" cy="133.7" r="62.3"/>
</svg>
