<?xml version="1.0" encoding="utf-8"?>
<!-- Generator: Adobe Illustrator 21.1.0, SVG Export Plug-In . SVG Version: 6.00 Build 0)  -->
<svg version="1.1" id="Layer_1" xmlns="http://www.w3.org/2000/svg" xmlns:xlink="http://www.w3.org/1999/xlink" x="0px" y="0px"
	 viewBox="0 0 1429 1109" style="enable-background:new 0 0 1429 1109;" xml:space="preserve">
<style type="text/css">
	.st0{opacity:0.35;fill:url(#SVGID_1_);}
	.st1{fill:url(#SVGID_2_);}
	.st2{opacity:0.35;fill:url(#SVGID_3_);}
	.st3{fill:url(#SVGID_4_);}
	.st4{opacity:0.35;fill:url(#SVGID_5_);}
	.st5{fill:url(#SVGID_6_);}
	.st6{opacity:0.39;fill:url(#SVGID_7_);}
	.st7{opacity:0.39;fill:url(#SVGID_8_);}
	.st8{opacity:0.39;fill:url(#SVGID_9_);}
	.st9{opacity:0.39;fill:url(#SVGID_10_);}
	.st10{fill:url(#SVGID_11_);}
	.st11{opacity:0.39;fill:url(#SVGID_12_);}
</style>
<g>
	
		<linearGradient id="SVGID_1_" gradientUnits="userSpaceOnUse" x1="596.4041" y1="726.2483" x2="769.118" y2="553.5344" gradientTransform="matrix(0.9987 5.007289e-02 -5.007289e-02 0.9987 33.2204 -32.2788)">
		<stop  offset="0" style="stop-color:#DAF8FF"/>
		<stop  offset="0.9987" style="stop-color:#B3D4FC"/>
	</linearGradient>
	<path class="st0" d="M631,486.3c13.3-18.5,49.6-23.7,68.5-8.6c7.6,6.1,11.8,15,14.6,28.8c7.8,38.6-5.9,65.9-15.1,101.4
		c-10,38.7-9.8,68.8-9.6,111.7c0.4,70.7,14.9,109.4,6.4,112.5c-9.5,3.4-34.8-41.9-48.4-72.5c-13.5-30.3-28-63-26.8-105.5
		c1.2-42.2,16.4-42.7,16.3-85.3C636.7,521.7,618.1,504.3,631,486.3z"/>
	
		<linearGradient id="SVGID_2_" gradientUnits="userSpaceOnUse" x1="588.4041" y1="721.2483" x2="761.118" y2="548.5344" gradientTransform="matrix(0.9987 5.007289e-02 -5.007289e-02 0.9987 33.2204 -32.2788)">
		<stop  offset="0" style="stop-color:#DAF8FF"/>
		<stop  offset="0.9987" style="stop-color:#B3D4FC"/>
	</linearGradient>
	<path class="st1" d="M623.3,480.9c13.3-18.5,49.6-23.7,68.5-8.6c7.6,6.1,11.8,15,14.6,28.8c7.8,38.6-5.9,65.9-15.1,101.4
		c-10,38.7-9.8,68.8-9.6,111.7c0.4,70.7,14.9,109.4,6.4,112.5c-9.5,3.4-34.8-41.9-48.4-72.5c-13.5-30.3-28-63-26.8-105.5
		c1.2-42.2,16.4-42.7,16.3-85.3C629,516.3,610.3,499,623.3,480.9z"/>
</g>
<g>
	
		<linearGradient id="SVGID_3_" gradientUnits="userSpaceOnUse" x1="689.962" y1="698.3926" x2="862.676" y2="525.6787" gradientTransform="matrix(0.9994 3.418903e-02 -3.418903e-02 0.9994 22.0472 -25.5747)">
		<stop  offset="0" style="stop-color:#DAF8FF"/>
		<stop  offset="0.9987" style="stop-color:#B3D4FC"/>
	</linearGradient>
	<path class="st2" d="M722.5,458.8c13-18.7,49.3-24.5,68.4-9.7c7.7,6,12.1,14.8,15,28.5c8.4,38.5-4.9,66-13.5,101.6
		c-9.4,38.9-8.8,68.9-7.8,111.8c1.5,70.7,16.7,109.1,8.2,112.3c-9.5,3.6-35.5-41.4-49.6-71.7c-14-30.1-29-62.5-28.4-105
		c0.5-42.2,15.8-43,14.9-85.5C728.7,494.1,709.8,477,722.5,458.8z"/>
	
		<linearGradient id="SVGID_4_" gradientUnits="userSpaceOnUse" x1="681.962" y1="693.3926" x2="854.676" y2="520.6787" gradientTransform="matrix(0.9994 3.418903e-02 -3.418903e-02 0.9994 22.0472 -25.5747)">
		<stop  offset="0" style="stop-color:#DAF8FF"/>
		<stop  offset="0.9987" style="stop-color:#B3D4FC"/>
	</linearGradient>
	<path class="st3" d="M714.6,453.5c13-18.7,49.3-24.5,68.4-9.7c7.7,6,12.1,14.8,15,28.5c8.4,38.5-4.9,66-13.5,101.6
		c-9.4,38.9-8.8,68.9-7.8,111.8c1.5,70.7,16.7,109.1,8.2,112.3c-9.5,3.6-35.5-41.4-49.6-71.7c-14-30.1-29-62.5-28.4-105
		c0.5-42.2,15.8-43,14.9-85.5C720.9,488.8,702,471.8,714.6,453.5z"/>
</g>
<g>
	<linearGradient id="SVGID_5_" gradientUnits="userSpaceOnUse" x1="497.4041" y1="760.2483" x2="670.118" y2="587.5344">
		<stop  offset="0" style="stop-color:#DAF8FF"/>
		<stop  offset="0.9987" style="stop-color:#B3D4FC"/>
	</linearGradient>
	<path class="st4" d="M524,522c12.3-19.1,48.4-26.1,68-12c7.9,5.7,12.6,14.4,16,28c9.7,38.2-2.6,66.2-10,102
		c-8.1,39.2-6.4,69.2-4,112c3.9,70.6,20.4,108.5,12,112c-9.3,3.9-36.9-40.1-52-70c-15-29.6-31.1-61.5-32-104
		c-0.9-42.2,14.3-43.5,12-86C531.5,557,512,540.7,524,522z"/>
	<linearGradient id="SVGID_6_" gradientUnits="userSpaceOnUse" x1="489.4041" y1="755.2483" x2="662.118" y2="582.5344">
		<stop  offset="0" style="stop-color:#DAF8FF"/>
		<stop  offset="0.9987" style="stop-color:#B3D4FC"/>
	</linearGradient>
	<path class="st5" d="M516,517c12.3-19.1,48.4-26.1,68-12c7.9,5.7,12.6,14.4,16,28c9.7,38.2-2.6,66.2-10,102
		c-8.1,39.2-6.4,69.2-4,112c3.9,70.6,20.4,108.5,12,112c-9.3,3.9-36.9-40.1-52-70c-15-29.6-31.1-61.5-32-104
		c-0.9-42.2,14.3-43.5,12-86C523.5,552,504,535.7,516,517z"/>
</g>
<linearGradient id="SVGID_7_" gradientUnits="userSpaceOnUse" x1="1271.8267" y1="1105.5148" x2="1315.88" y2="1061.4614" gradientTransform="matrix(-0.7071 0.7071 -0.7071 -0.7071 2057.1174 20.1016)">
	<stop  offset="0" style="stop-color:#DAF8FF"/>
	<stop  offset="0.9987" style="stop-color:#B3D4FC"/>
</linearGradient>
<circle class="st6" cx="376.1" cy="168.9" r="31.2"/>
<linearGradient id="SVGID_8_" gradientUnits="userSpaceOnUse" x1="1622.7155" y1="955.99" x2="1688.7963" y2="889.9092" gradientTransform="matrix(-0.7071 0.7071 -0.7071 -0.7071 2057.1174 20.1016)">
	<stop  offset="0" style="stop-color:#DAF8FF"/>
	<stop  offset="0.9987" style="stop-color:#B3D4FC"/>
</linearGradient>
<circle class="st7" cx="233.7" cy="538.3" r="46.7"/>
<linearGradient id="SVGID_9_" gradientUnits="userSpaceOnUse" x1="1019.0889" y1="308.4869" x2="1041.1158" y2="286.4599" gradientTransform="matrix(-0.7071 0.7071 -0.7071 -0.7071 2057.1174 20.1016)">
	<stop  offset="0" style="stop-color:#DAF8FF"/>
	<stop  offset="0.9987" style="stop-color:#B3D4FC"/>
</linearGradient>
<circle class="st8" cx="1118.4" cy="538.1" r="15.6"/>
<linearGradient id="SVGID_10_" gradientUnits="userSpaceOnUse" x1="763.7072" y1="536.6914" x2="851.8146" y2="448.584" gradientTransform="matrix(-0.7071 0.7071 -0.7071 -0.7071 2057.1174 20.1016)">
	<stop  offset="0" style="stop-color:#DAF8FF"/>
	<stop  offset="0.9987" style="stop-color:#B3D4FC"/>
</linearGradient>
<circle class="st9" cx="1137.6" cy="242.9" r="62.3"/>
<g>
	<linearGradient id="SVGID_11_" gradientUnits="userSpaceOnUse" x1="328.1103" y1="442.0652" x2="1061.884" y2="442.0652">
		<stop  offset="0" style="stop-color:#DAF8FF"/>
		<stop  offset="0.9987" style="stop-color:#B3D4FC"/>
	</linearGradient>
	<path class="st10" d="M330.1,468.2c17.4-144.8,156-253.7,286.7-286.7c27.9-7,111.4-26.9,207.9,6.3
		c103.7,35.7,224.6,133.5,236.3,277.2c6.7,82.5-20.3,209.6-100.8,242.6c-106.2,43.5-194.7-122.3-365.4-94.5
		c-99.8,16.3-135.6,83.7-192.2,59.9C341.5,647.2,321.2,542.2,330.1,468.2z"/>
	<linearGradient id="SVGID_12_" gradientUnits="userSpaceOnUse" x1="342.1103" y1="450.0652" x2="1075.884" y2="450.0652">
		<stop  offset="0" style="stop-color:#DAF8FF"/>
		<stop  offset="0.9987" style="stop-color:#B3D4FC"/>
	</linearGradient>
	<path class="st11" d="M344.1,476.2c17.4-144.8,156-253.7,286.7-286.7c27.9-7,111.4-26.9,207.9,6.3
		c103.7,35.7,224.6,133.5,236.3,277.2c6.7,82.5-20.3,209.6-100.8,242.6c-106.2,43.5-194.7-122.3-365.4-94.5
		c-99.8,16.3-135.6,83.7-192.2,59.9C355.5,655.2,335.2,550.2,344.1,476.2z"/>
</g>
</svg>
