<svg id="Capa_1" enable-background="new 0 0 512 512" height="512" viewBox="0 0 512 512" width="512" xmlns="http://www.w3.org/2000/svg" xmlns:xlink="http://www.w3.org/1999/xlink"><linearGradient id="SVGID_1_" gradientUnits="userSpaceOnUse" x1="0" x2="512" y1="256" y2="256"><stop offset="0" stop-color="#d2deff" stop-opacity="0"/><stop offset=".459" stop-color="#cee2fd" stop-opacity=".67"/><stop offset=".6852" stop-color="#c9e7fa"/></linearGradient><g><g><path d="m418.32 2.5c-55.666-9.521-178.298 12.183-200.004 105.017-14.431 61.722-14.007 112.075-50.427 113.02-21.67.562-32.97-44.31-62.889-48.001-39.047-4.817-66.145 27.695-83.057 57.138-37.205 64.772-25.571 174.918 23.354 228.632 118.488 130.086 259.197-5.952 319.358-112.309 38.585-68.213 125.637-123.352 143.767-200.248 15.177-64.376-18.503-131.003-90.102-143.249z" fill="url(#SVGID_1_)"/></g><g><g><path d="m457.81 240.178c-7.355-39.083-34.454-71.203-70.549-85.595-.746-.298-1.526-.493-2.319-.612l.042-50.207c.019-22.218-17.978-40.245-40.196-40.263-20.503-.017-37.425 15.311-39.931 35.137h-84.174c-5.321-12.676-17.849-21.579-32.458-21.579-19.434 0-35.189 15.755-35.189 35.189 0 6.767 1.914 13.086 5.225 18.451l-61.115 85.272c-2.559-.592-5.22-.915-7.958-.915-19.433 0-35.188 15.755-35.188 35.189s15.755 35.189 35.189 35.189c2.323 0 4.59-.231 6.787-.661l72.02 106.565h-42.359c-12.021 0-21.766 9.745-21.766 21.766v41.38c0 6.011 4.873 10.883 10.883 14.148h298.754c6.011-3.265 10.883-8.137 10.883-14.148v-41.38c0-12.021-9.745-21.766-21.766-21.766h-201.782l-82.272-121.734c3.667-5.554 5.807-12.205 5.807-19.359 0-6.727-1.89-13.012-5.165-18.356l61.163-85.341c2.525.576 5.15.89 7.849.89 14.613 0 27.144-8.909 32.463-21.591h83.819l-.024 28.057c-.793.117-1.573.311-2.32.608-36.119 14.332-63.272 46.406-70.693 85.476-1.271 6.69 3.886 12.884 10.696 12.89l69.344.058c-.045.702-.076 1.407-.076 2.12-.015 18.332 14.833 33.206 33.166 33.222s33.206-14.833 33.222-33.166c.001-.713-.029-1.419-.073-2.121l69.344.058c6.81.007 11.977-6.178 10.717-12.871z" fill="#bae1f8"/><g><path d="m308.028 376.919c-.603-19.105-16.271-34.411-35.523-34.411s-34.919 15.306-35.523 34.411z" fill="#3e85a9"/><path d="m385.106 376.919c-.495-15.658-13.334-28.201-29.112-28.201s-28.618 12.544-29.112 28.201z" fill="#ff7eb8"/><g><g><path d="m320.87 92.109c0 7.52-6.095 13.604-13.604 13.604h-112.053l-89.449 124.808 100.267 148.359c4.201 6.225 2.568 14.682-3.657 18.893-2.34 1.578-4.985 2.329-7.607 2.329-4.364 0-8.652-2.1-11.286-5.986l-101.377-150.002-4.19-6.203c-3.178-4.712-3.102-10.916.218-15.541l99.037-138.184c2.558-3.559 6.671-5.681 11.057-5.681h119.04c7.509 0 13.604 6.094 13.604 13.604z" fill="#2a719b"/></g><path d="m130.088 266.501c-6.062 6.813-13.8 12.113-22.561 15.226l-25.423-37.612h32.845z" fill="#226191"/><path d="m191.904 110.327-23.529 32.834c-8.641-3.363-16.227-8.87-22.104-15.868l26.12-36.437c6.519 6.488 13.016 12.974 19.513 19.471z" fill="#226191"/><circle cx="188.226" cy="92.115" fill="#73aacf" r="35.189"/><circle cx="188.226" cy="92.115" fill="#fff" r="14.615"/><circle cx="89.189" cy="230.111" fill="#73aacf" r="35.189"/><circle cx="89.189" cy="230.111" fill="#fff" r="15.111"/><path d="m413.507 445.234h-298.754c-6.011 0-10.883-4.873-10.883-10.883v-41.38c0-12.021 9.745-21.766 21.766-21.766h276.988c12.021 0 21.766 9.745 21.766 21.766v41.38c.001 6.01-4.872 10.883-10.883 10.883z" fill="#73aacf"/><path d="m285.782 445.234h-130.387v-31.573c0-3.005 2.436-5.442 5.442-5.442h119.504c3.005 0 5.442 2.436 5.442 5.442v31.573z" fill="#fff"/></g><g><circle cx="344.628" cy="234.951" fill="#fff" r="33.194"/><path d="m377.821 234.979c-.005 6.41-1.828 12.394-4.977 17.463l-56.451-.048c-3.152-5.074-4.964-11.062-4.959-17.472.015-18.327 14.894-33.181 33.222-33.166 18.337.016 33.18 14.895 33.165 33.223z" fill="#bae1f8"/><g><path d="m384.939 138.025-80.459-.068.046-54.394c.019-22.218 18.045-40.214 40.263-40.196 22.218.019 40.214 18.045 40.196 40.263z" fill="#fff"/></g><path d="m383.298 133.704-77.168-.065c-1.356-.001-2.705.238-3.965.738-36.119 14.332-63.272 46.406-70.693 85.476-1.271 6.69 3.886 12.884 10.696 12.89l204.925.173c6.81.006 11.977-6.179 10.717-12.872-7.355-39.083-34.454-71.203-70.548-85.595-1.26-.502-2.609-.743-3.964-.745z" fill="#73aacf"/><path d="m455.658 210.812h-222.071c-.818 2.969-1.535 5.981-2.116 9.042-1.271 6.69 3.886 12.884 10.696 12.89l204.925.172c6.81.006 11.977-6.179 10.717-12.872-.587-3.125-1.315-6.201-2.151-9.232z" fill="#3e85a9"/><g><path d="m338.384 116.949c-.002 0-.003 0-.005 0l-8.162-.007c-3.005-.003-5.439-2.441-5.436-5.447.003-3.004 2.439-5.436 5.442-5.436h.005l8.162.007c3.005.003 5.439 2.441 5.436 5.447-.004 3.003-2.439 5.436-5.442 5.436z" fill="#2a719b"/></g></g></g><path d="m414.28 328.075c-2.762 0-5-2.238-5-5 0-3.309-2.691-6-6-6-2.762 0-5-2.238-5-5s2.238-5 5-5c3.309 0 6-2.692 6-6.001 0-2.762 2.238-5 5-5s5 2.238 5 5c0 3.309 2.691 6.001 6 6.001 2.762 0 5 2.238 5 5s-2.238 5-5 5c-3.309 0-6 2.691-6 6 0 2.762-2.238 5-5 5z" fill="#ff7eb8"/><path d="m108.261 106.106c-2.761 0-5-2.238-5-5 0-3.309-2.691-6-6-6-2.761 0-5-2.238-5-5s2.239-5 5-5c3.309 0 6-2.691 6-6 0-2.762 2.239-5 5-5s5 2.238 5 5c0 3.309 2.691 6 6 6 2.761 0 5 2.238 5 5s-2.239 5-5 5c-3.309 0-6 2.691-6 6 0 2.762-2.239 5-5 5z" fill="#ff7eb8"/><path d="m425.513 113.398c-1.279 0-2.56-.488-3.535-1.465-1.953-1.952-1.953-5.118 0-7.07l10-10c1.951-1.953 5.119-1.953 7.07 0 1.953 1.952 1.953 5.118 0 7.07l-10 10c-.976.977-2.256 1.465-3.535 1.465z" fill="#2a719b"/><g fill="#ff7eb8"><path d="m246 289.509c-1.28 0-2.559-.488-3.536-1.465-1.953-1.952-1.953-5.118 0-7.07l10-10c1.953-1.952 5.12-1.954 7.071 0 1.953 1.952 1.953 5.118 0 7.07l-10 10c-.976.977-2.255 1.465-3.535 1.465z"/><path d="m71.487 325.446c-1.28 0-2.559-.488-3.536-1.465-1.953-1.952-1.953-5.118 0-7.07l10-10c1.953-1.953 5.118-1.953 7.071 0 1.953 1.952 1.953 5.118 0 7.07l-10 10c-.976.977-2.255 1.465-3.535 1.465z"/></g></g></g><path d="m462.724 219.114c-3.746-19.893-12.586-38.676-25.563-54.32-12.652-15.252-28.973-27.224-47.217-34.652l.046-46.51c.011-24.936-20.264-45.24-45.195-45.262-.015 0-.028 0-.043 0-12.066 0-23.413 4.692-31.953 13.216-6.127 6.116-10.271 13.683-12.137 21.924h-76.831c-6.724-12.816-20.157-21.584-35.606-21.584-22.16 0-40.189 18.028-40.189 40.188 0 6.51 1.566 12.658 4.325 18.102l-57.425 80.124c-1.878-.27-3.795-.417-5.747-.417-22.16 0-40.189 18.028-40.189 40.188s18.029 40.189 40.189 40.189c1.493 0 2.964-.088 4.415-.248l64.981 96.152h-32.949c-14.759 0-26.767 12.008-26.767 26.767v41.38c0 8.759 7.125 15.884 15.883 15.884h41.913c2.761 0 5-2.238 5-5s-2.239-5-5-5h-41.913c-3.244 0-5.883-2.64-5.883-5.884v-41.38c0-9.245 7.521-16.767 16.767-16.767h276.987c9.245 0 16.767 7.521 16.767 16.767v41.38c0 3.244-2.639 5.884-5.883 5.884h-222.84c-2.761 0-5 2.238-5 5s2.239 5 5 5h222.841c8.758 0 15.883-7.125 15.883-15.884v-41.38c0-14.759-12.008-26.767-26.767-26.767h-14.53c-4.731-13.197-17.271-22.486-32.1-22.486s-27.37 9.29-32.101 22.486h-12.598c-5.035-16.723-20.44-28.696-38.791-28.696s-33.755 11.973-38.79 28.696h-30.221l-79.003-116.899c3.115-5.707 4.888-12.247 4.888-19.193 0-6.468-1.545-12.578-4.271-17.996l57.491-80.214c1.84.259 3.717.402 5.628.402 15.45 0 28.883-8.769 35.607-21.586h75.671l-.019 19.349c-18.269 7.41-34.6 19.351-47.271 34.572-13.008 15.625-21.879 34.395-25.655 54.278-.883 4.649.346 9.41 3.37 13.063 3.032 3.661 7.494 5.761 12.239 5.761l35.33.02h.003c2.76 0 4.998-2.236 5-4.997.002-2.762-2.235-5.001-4.997-5.003l-35.333-.02c-1.76 0-3.415-.779-4.54-2.139-1.118-1.351-1.572-3.106-1.248-4.819 6.958-36.637 32.87-67.964 67.633-81.76.34-.136.738-.237 1.217-.31 2.44-.371 4.245-2.469 4.248-4.938l.05-50.213c.004-9.409 3.674-18.251 10.333-24.897 6.651-6.64 15.489-10.294 24.889-10.294h.033c19.421.017 35.214 15.834 35.205 35.255l-.05 50.21c-.003 2.477 1.809 4.582 4.258 4.949.475.071.862.17 1.21.311 34.725 13.841 60.584 45.212 67.487 81.87.327 1.738-.116 3.448-1.25 4.814-1.128 1.36-2.789 2.141-4.552 2.141l-135.589-.12c-.002 0-.003 0-.005 0-2.623 0-4.801 2.028-4.987 4.646-.056.784-.083 1.594-.083 2.472-.011 21.064 17.11 38.212 38.164 38.223h.044c10.185 0 19.764-3.962 26.975-11.159 6.537-6.525 10.419-14.999 11.1-24.116l64.378.056c4.753 0 9.219-2.099 12.253-5.757 3.021-3.647 4.254-8.403 3.38-13.052zm-403.724 10.997c0-16.646 13.542-30.188 30.189-30.188s30.189 13.543 30.189 30.188-13.543 30.189-30.189 30.189-30.189-13.543-30.189-30.189zm296.994 123.607c9.152 0 17.066 5.008 21.155 12.486h-42.312c4.09-7.478 12.005-12.486 21.157-12.486zm-83.489-6.21c12.731 0 23.581 7.648 28.18 18.696h-56.36c4.6-11.048 15.449-18.696 28.18-18.696zm-81.081 18.696h-20.769l-66.717-98.72c5.437-2.153 10.293-5.457 14.271-9.614zm-72.314-162.887c-3.845-4.289-8.596-7.748-13.95-10.076l53.216-74.25c3.856 4.278 8.616 7.724 13.977 10.038zm69.116-81.013c-16.646 0-30.189-13.543-30.189-30.189s13.542-30.188 30.189-30.188 30.189 13.543 30.189 30.188c0 16.646-13.543 30.189-30.189 30.189zm39.252-21.586c.608-2.774.937-5.65.937-8.604s-.329-5.831-.937-8.604h72.054c0 .015-.001.03-.001.045l-.017 17.163zm137.07 154.184c-5.323 5.313-12.393 8.237-19.913 8.237-.011 0-.021 0-.032 0-14.569-.008-26.587-11.132-28.028-25.335l56.101.051c-.655 6.441-3.483 12.412-8.128 17.047z" fill="#014073"/></g></svg>