<svg id="Capa_1" enable-background="new 0 0 512 512" height="512" viewBox="0 0 512 512" width="512" xmlns="http://www.w3.org/2000/svg" xmlns:xlink="http://www.w3.org/1999/xlink"><linearGradient id="SVGID_1_" gradientUnits="userSpaceOnUse" x1="96.524" x2="444.685" y1="453.699" y2="38.776"><stop offset="0" stop-color="#d2deff" stop-opacity="0"/><stop offset=".459" stop-color="#cee2fd" stop-opacity=".67"/><stop offset=".6852" stop-color="#c9e7fa"/></linearGradient><g><g><path d="m4.896 324.259c17.448 172.871 292.417 167.142 420.804 136.265 82.47-19.834 87.596-59.472 86.106-144.001-.96-54.486 3.443-198.725-32.004-244.123-54.448-69.733-103.228-25.998-170.656-3.235-86.488 29.197-120.189-22.932-202.476-21.38-120.641 2.278-110.779 187.252-101.774 276.474z" fill="url(#SVGID_1_)"/></g><g><g><g><g><g><g><path d="m192.003 461.629h-11.5c-2.762 0-5-2.238-5-5s2.238-5 5-5h11.5c2.762 0 5 2.238 5 5s-2.238 5-5 5z" fill="#bae1f8"/></g><g><path d="m228.735 461.629h-11.5c-2.762 0-5-2.238-5-5s2.238-5 5-5h11.5c2.762 0 5 2.238 5 5s-2.238 5-5 5z" fill="#bae1f8"/></g><g><path d="m265.468 461.629h-11.5c-2.762 0-5-2.238-5-5s2.238-5 5-5h11.5c2.762 0 5 2.238 5 5s-2.239 5-5 5z" fill="#bae1f8"/></g></g><g><g><path d="m302.2 461.629h-11.5c-2.762 0-5-2.238-5-5s2.238-5 5-5h11.5c2.762 0 5 2.238 5 5s-2.238 5-5 5z" fill="#bae1f8"/></g><g><path d="m338.933 461.629h-11.5c-2.762 0-5-2.238-5-5s2.238-5 5-5h11.5c2.762 0 5 2.238 5 5s-2.239 5-5 5z" fill="#bae1f8"/></g><g><path d="m375.664 461.629h-11.5c-2.762 0-5-2.238-5-5s2.238-5 5-5h11.5c2.762 0 5 2.238 5 5s-2.238 5-5 5z" fill="#bae1f8"/></g><g><path d="m412.396 461.629h-11.5c-2.762 0-5-2.238-5-5s2.238-5 5-5h11.5c2.762 0 5 2.238 5 5s-2.238 5-5 5z" fill="#bae1f8"/></g></g></g><g><g><g><path d="m449.129 314.7c-2.762 0-5-2.238-5-5v-11.5c0-2.762 2.238-5 5-5s5 2.238 5 5v11.5c0 2.762-2.238 5-5 5z" fill="#bae1f8"/></g><g><path d="m449.129 351.433c-2.762 0-5-2.238-5-5v-11.5c0-2.762 2.238-5 5-5s5 2.238 5 5v11.5c0 2.761-2.238 5-5 5z" fill="#bae1f8"/></g><g><path d="m449.129 388.164c-2.762 0-5-2.238-5-5v-11.5c0-2.762 2.238-5 5-5s5 2.238 5 5v11.5c0 2.762-2.238 5-5 5z" fill="#bae1f8"/></g><g><path d="m449.129 424.897c-2.762 0-5-2.238-5-5v-11.5c0-2.762 2.238-5 5-5s5 2.238 5 5v11.5c0 2.761-2.238 5-5 5z" fill="#bae1f8"/></g></g><g><g><path d="m449.129 461.629h-11.5c-2.762 0-5-2.238-5-5s2.238-5 5-5h6.5v-6.5c0-2.762 2.238-5 5-5s5 2.238 5 5v11.5c0 2.762-2.238 5-5 5z" fill="#bae1f8"/></g></g></g></g><g><g><g><g><path d="m147.836 75.371h-11.5c-2.762 0-5-2.238-5-5s2.238-5 5-5h11.5c2.762 0 5 2.238 5 5s-2.238 5-5 5z" fill="#bae1f8"/></g><g><path d="m111.104 75.371h-11.5c-2.762 0-5-2.238-5-5s2.238-5 5-5h11.5c2.762 0 5 2.238 5 5s-2.239 5-5 5z" fill="#bae1f8"/></g></g></g><g><g><g><path d="m62.871 270.532c-2.762 0-5-2.238-5-5v-11.5c0-2.762 2.238-5 5-5s5 2.238 5 5v11.5c0 2.762-2.238 5-5 5z" fill="#bae1f8"/></g></g><g><g><path d="m62.871 233.8c-2.762 0-5-2.238-5-5v-11.5c0-2.762 2.238-5 5-5s5 2.238 5 5v11.5c0 2.762-2.238 5-5 5z" fill="#bae1f8"/></g><g><path d="m62.871 197.067c-2.762 0-5-2.238-5-5v-11.5c0-2.762 2.238-5 5-5s5 2.238 5 5v11.5c0 2.762-2.238 5-5 5z" fill="#bae1f8"/></g><g><path d="m62.871 160.336c-2.762 0-5-2.238-5-5v-11.5c0-2.762 2.238-5 5-5s5 2.238 5 5v11.5c0 2.762-2.238 5-5 5z" fill="#bae1f8"/></g><g><path d="m62.871 123.604c-2.762 0-5-2.238-5-5v-11.5c0-2.762 2.238-5 5-5s5 2.238 5 5v11.5c0 2.761-2.238 5-5 5z" fill="#bae1f8"/></g></g><g><g><path d="m62.871 86.871c-2.762 0-5-2.238-5-5v-11.5c0-2.762 2.238-5 5-5h11.5c2.762 0 5 2.238 5 5s-2.238 5-5 5h-6.5v6.5c0 2.762-2.238 5-5 5z" fill="#bae1f8"/></g></g></g></g><g fill="#bae1f8"><path d="m440.453 70.371h-261.003c-4.792 0-8.676 3.884-8.676 8.676v186.469c0 4.792 3.884 8.676 8.676 8.676h102.213l-3.308 16.073c-1.337 6.498-5.834 11.663-11.687 14.047-2.9 1.181-4.869 3.911-4.869 7.043v.134c0 4.158 3.37 7.528 7.528 7.528h81.249c4.158 0 7.528-3.37 7.528-7.528v-.134c0-3.132-1.969-5.862-4.869-7.043-5.853-2.384-10.349-7.549-11.687-14.047l-3.308-16.073h102.213c4.792 0 8.676-3.884 8.676-8.676v-186.469c0-4.792-3.884-8.676-8.676-8.676z"/><path d="m146.356 292.948h-72.7c-5.956 0-10.784 4.828-10.784 10.785v142.112c0 5.956 4.828 10.784 10.784 10.784h72.7c5.956 0 10.785-4.828 10.785-10.784v-142.112c-.001-5.956-4.829-10.785-10.785-10.785z"/></g><g><g><g><g><g><g><path d="m269.327 299.018h81.249c4.158 0 7.528-3.37 7.528-7.528v-.134c0-3.132-1.969-5.862-4.869-7.043-5.852-2.384-10.349-7.549-11.687-14.047l-4.437-21.56h-54.32l-4.437 21.56c-1.337 6.498-5.834 11.663-11.687 14.047-2.901 1.181-4.869 3.911-4.869 7.043v.134c.001 4.158 3.371 7.528 7.529 7.528z" fill="#a9d2ea"/><path d="m342.06 272.19h-64.22c.21-.63.38-1.27.51-1.92l4.44-21.56h54.32l4.44 21.56c.13.65.3 1.29.51 1.92z" fill="#73aacf"/><path d="m440.453 254.192h-261.003c-4.792 0-8.676-3.884-8.676-8.676v-186.469c0-4.792 3.884-8.676 8.676-8.676h261.003c4.792 0 8.676 3.884 8.676 8.676v186.469c0 4.792-3.884 8.676-8.676 8.676z" fill="#fff"/><g><path d="m250.238 150.846h-76.52c-2.762 0-5-2.239-5-5s2.238-5 5-5h76.52c2.762 0 5 2.239 5 5s-2.238 5-5 5z" fill="#ff7eb8"/></g><path d="m418.758 218.761h-217.614v-41.693c0-2.761 2.239-5 5-5h207.614c2.761 0 5 2.239 5 5z" fill="#73aacf"/><path d="m449.129 80.167v-21.12c0-4.792-3.884-8.676-8.676-8.676h-261.003c-4.792 0-8.676 3.884-8.676 8.676v21.12z" fill="#ff7eb8"/><path d="m170.774 218.761v26.755c0 4.792 3.884 8.676 8.676 8.676h261.003c4.792 0 8.676-3.884 8.676-8.676v-26.755z" fill="#a9d2ea"/></g></g></g></g></g><g><g><g><g><path d="m146.356 436.629h-72.7c-5.956 0-10.785-4.828-10.785-10.785v-142.111c0-5.956 4.828-10.785 10.785-10.785h72.7c5.956 0 10.785 4.828 10.785 10.785v142.112c-.001 5.956-4.829 10.784-10.785 10.784z" fill="#2a719b"/><path d="m62.87 291.12h94.27v119.76h-94.27z" fill="#fff"/><g><path d="m98.52 337.04c0 2.77-2.24 5-5 5h-30.65v-10h30.65c2.76 0 5 2.24 5 5z" fill="#ff7eb8"/></g><path d="m62.871 291.122h94.269v19.045h-94.269z" fill="#ff7eb8"/></g></g></g></g></g><path d="m422.717 71.783h-18.666c-2.762 0-5 2.238-5 5s2.238 5 5 5h6.596l-25.704 25.704v-6.597c0-2.762-2.238-5-5-5s-5 2.238-5 5v18.667c0 2.762 2.238 5 5 5h18.667c2.762 0 5-2.238 5-5s-2.238-5-5-5h-6.597l25.704-25.704v6.596c0 2.762 2.238 5 5 5s5-2.238 5-5v-18.666c0-2.761-2.238-5-5-5z" fill="#014073"/><path d="m128.152 344.941h-18.666c-2.762 0-5 2.238-5 5s2.238 5 5 5h6.596l-25.704 25.705v-6.596c0-2.762-2.238-5-5-5s-5 2.238-5 5v18.667c0 2.762 2.238 5 5 5h18.667c2.762 0 5-2.238 5-5s-2.238-5-5-5h-6.597l25.704-25.705v6.597c0 2.762 2.238 5 5 5s5-2.238 5-5v-18.667c0-2.762-2.238-5.001-5-5.001z" fill="#014073"/><circle cx="110.006" cy="421.282" fill="#73aacf" r="6.782"/><g><g><g><g><path d="m440.453 45.371h-261.004c-7.541 0-13.676 6.135-13.676 13.676v186.47c0 7.541 6.135 13.676 13.676 13.676h96.079l-2.071 10.065c-.969 4.709-4.212 8.606-8.676 10.424-4.849 1.976-7.982 6.559-7.982 11.674v.135c0 6.907 5.62 12.527 12.528 12.527h81.249c6.907 0 12.527-5.62 12.527-12.527v-.135c0-5.116-3.133-9.698-7.982-11.674-4.463-1.817-7.706-5.715-8.675-10.424l-2.072-10.065h96.079c7.541 0 13.676-6.135 13.676-13.676v-186.47c0-7.541-6.135-13.676-13.676-13.676zm-103.802 225.902c1.643 7.984 7.138 14.59 14.697 17.67 1.066.434 1.755 1.381 1.755 2.412v.135c0 1.394-1.134 2.527-2.527 2.527h-81.249c-1.395 0-2.528-1.134-2.528-2.527v-.135c0-1.031.689-1.978 1.755-2.412 7.561-3.08 13.056-9.686 14.698-17.67l2.486-12.081h48.427zm107.478-25.756c0 2.026-1.649 3.676-3.676 3.676h-261.004c-2.026 0-3.676-1.649-3.676-3.676v-21.756h239.355c2.762 0 5-2.238 5-5s-2.238-5-5-5h-239.355v-154.714c0-2.026 1.649-3.676 3.676-3.676h261.004c2.026 0 3.676 1.649 3.676 3.676z" fill="#014073"/></g></g><g><path d="m146.355 267.948h-72.7c-8.703 0-15.784 7.081-15.784 15.784v142.112c0 8.703 7.081 15.784 15.784 15.784h72.7c8.704 0 15.785-7.081 15.785-15.784v-85.844c0-2.762-2.238-5-5-5s-5 2.238-5 5v85.845c0 3.189-2.595 5.784-5.785 5.784h-72.7c-3.189 0-5.784-2.595-5.784-5.784v-142.113c0-3.189 2.595-5.784 5.784-5.784h72.7c3.19 0 5.785 2.595 5.785 5.784v22.268c0 2.762 2.238 5 5 5s5-2.238 5-5v-22.268c.001-8.703-7.08-15.784-15.785-15.784z" fill="#014073"/></g><g><path d="m192.003 431.629h-11.5c-2.762 0-5 2.238-5 5s2.238 5 5 5h11.5c2.762 0 5-2.238 5-5s-2.238-5-5-5z" fill="#014073"/></g><g><path d="m228.735 431.629h-11.5c-2.762 0-5 2.238-5 5s2.238 5 5 5h11.5c2.762 0 5-2.238 5-5s-2.238-5-5-5z" fill="#014073"/></g><g><path d="m265.468 431.629h-11.5c-2.762 0-5 2.238-5 5s2.238 5 5 5h11.5c2.762 0 5-2.238 5-5s-2.239-5-5-5z" fill="#014073"/></g><g><path d="m302.2 431.629h-11.5c-2.762 0-5 2.238-5 5s2.238 5 5 5h11.5c2.762 0 5-2.238 5-5s-2.238-5-5-5z" fill="#014073"/></g><g><path d="m338.933 431.629h-11.5c-2.762 0-5 2.238-5 5s2.238 5 5 5h11.5c2.762 0 5-2.238 5-5s-2.239-5-5-5z" fill="#014073"/></g><g><path d="m375.664 431.629h-11.5c-2.762 0-5 2.238-5 5s2.238 5 5 5h11.5c2.762 0 5-2.238 5-5s-2.238-5-5-5z" fill="#014073"/></g><g><path d="m412.396 431.629h-11.5c-2.762 0-5 2.238-5 5s2.238 5 5 5h11.5c2.762 0 5-2.238 5-5s-2.238-5-5-5z" fill="#014073"/></g><g><path d="m449.129 273.2c-2.762 0-5 2.238-5 5v11.5c0 2.762 2.238 5 5 5s5-2.238 5-5v-11.5c0-2.762-2.238-5-5-5z" fill="#014073"/></g><g><path d="m449.129 309.933c-2.762 0-5 2.238-5 5v11.5c0 2.762 2.238 5 5 5s5-2.238 5-5v-11.5c0-2.762-2.238-5-5-5z" fill="#014073"/></g><g><path d="m449.129 346.664c-2.762 0-5 2.238-5 5v11.5c0 2.762 2.238 5 5 5s5-2.238 5-5v-11.5c0-2.762-2.238-5-5-5z" fill="#014073"/></g><g><path d="m449.129 383.396c-2.762 0-5 2.238-5 5v11.5c0 2.762 2.238 5 5 5s5-2.238 5-5v-11.5c0-2.761-2.238-5-5-5z" fill="#014073"/></g><g><path d="m449.129 420.129c-2.762 0-5 2.238-5 5v6.5h-6.5c-2.762 0-5 2.238-5 5s2.238 5 5 5h11.5c2.762 0 5-2.238 5-5v-11.5c0-2.762-2.238-5-5-5z" fill="#014073"/></g><g><path d="m136.336 55.371h11.5c2.762 0 5-2.238 5-5s-2.238-5-5-5h-11.5c-2.762 0-5 2.238-5 5s2.238 5 5 5z" fill="#014073"/></g><g><path d="m99.604 55.371h11.5c2.762 0 5-2.238 5-5s-2.238-5-5-5h-11.5c-2.762 0-5 2.238-5 5s2.238 5 5 5z" fill="#014073"/></g><g><path d="m62.871 250.532c2.762 0 5-2.238 5-5v-11.5c0-2.762-2.238-5-5-5s-5 2.238-5 5v11.5c0 2.762 2.238 5 5 5z" fill="#014073"/></g><g><path d="m62.871 213.8c2.762 0 5-2.238 5-5v-11.5c0-2.762-2.238-5-5-5s-5 2.238-5 5v11.5c0 2.762 2.238 5 5 5z" fill="#014073"/></g><g><path d="m62.871 177.067c2.762 0 5-2.238 5-5v-11.5c0-2.762-2.238-5-5-5s-5 2.238-5 5v11.5c0 2.762 2.238 5 5 5z" fill="#014073"/></g><g><path d="m62.871 140.336c2.762 0 5-2.238 5-5v-11.5c0-2.762-2.238-5-5-5s-5 2.238-5 5v11.5c0 2.762 2.238 5 5 5z" fill="#014073"/></g><g><path d="m62.871 103.604c2.762 0 5-2.238 5-5v-11.5c0-2.762-2.238-5-5-5s-5 2.238-5 5v11.5c0 2.761 2.238 5 5 5z" fill="#014073"/></g><g><path d="m62.871 66.871c2.762 0 5-2.238 5-5v-6.5h6.5c2.762 0 5-2.238 5-5s-2.238-5-5-5h-11.5c-2.762 0-5 2.238-5 5v11.5c0 2.762 2.238 5 5 5z" fill="#014073"/></g><g><g><path d="m214.645 92.921h-5.332c-6.508 0-11.803 5.295-11.803 11.803v16.457c0 6.508 5.295 11.802 11.803 11.802h5.332c6.508 0 11.803-5.294 11.803-11.802v-16.457c-.001-6.508-5.296-11.803-11.803-11.803zm1.802 28.26c0 .993-.809 1.802-1.803 1.802h-5.332c-.994 0-1.803-.809-1.803-1.802v-16.457c0-.994.809-1.803 1.803-1.803h5.332c.994 0 1.803.809 1.803 1.803z" fill="#014073"/></g></g><g><path d="m243.461 92.921h-5.444c-2.762 0-5 2.238-5 5s2.238 5 5 5h.444v25.062c0 2.762 2.238 5 5 5s5-2.238 5-5v-30.062c0-2.762-2.238-5-5-5z" fill="#014073"/></g></g></g><g><g><g><path d="m345.825 150.901h-66.52c-2.762 0-5-2.239-5-5s2.238-5 5-5h66.52c2.762 0 5 2.239 5 5s-2.239 5-5 5z" fill="#73aacf"/></g></g><g><path d="m395.825 177.068h-116.52c-2.762 0-5-2.239-5-5s2.238-5 5-5h116.52c2.762 0 5 2.239 5 5s-2.239 5-5 5z" fill="#2a719b"/></g><g><path d="m395.825 195.568h-116.52c-2.762 0-5-2.239-5-5s2.238-5 5-5h116.52c2.762 0 5 2.239 5 5s-2.239 5-5 5z" fill="#2a719b"/></g><circle cx="396.33" cy="153.568" fill="#73aacf" r="5"/></g></g><path d="m116.787 150.901c-1.279 0-2.56-.488-3.535-1.465-1.953-1.952-1.953-5.118 0-7.07l10-10c1.951-1.953 5.119-1.953 7.07 0 1.953 1.952 1.953 5.118 0 7.07l-10 10c-.975.977-2.256 1.465-3.535 1.465z" fill="#2a719b"/><path d="m243.968 398.164c-1.279 0-2.56-.488-3.535-1.465-1.953-1.952-1.953-5.118 0-7.07l10-10c1.951-1.953 5.119-1.953 7.07 0 1.953 1.952 1.953 5.118 0 7.07l-10 10c-.976.977-2.256 1.465-3.535 1.465z" fill="#ff7eb8"/><path d="m204.713 309.019c-1.279 0-2.56-.488-3.535-1.465-1.953-1.952-1.953-5.118 0-7.07l10-10c1.951-1.953 5.119-1.953 7.07 0 1.953 1.952 1.953 5.118 0 7.07l-10 10c-.976.976-2.256 1.465-3.535 1.465z" fill="#2a719b"/><g fill="#ff7eb8"><path d="m406.646 326.167c-2.762 0-5-2.238-5-5 0-3.309-2.691-6-6-6-2.762 0-5-2.238-5-5s2.238-5 5-5c3.309 0 6-2.691 6-6 0-2.762 2.238-5 5-5s5 2.238 5 5c0 3.309 2.691 6 6 6 2.762 0 5 2.238 5 5s-2.238 5-5 5c-3.309 0-6 2.691-6 6 0 2.762-2.238 5-5 5z"/><path d="m202.51 387.229c-2.762 0-5-2.238-5-5 0-3.309-2.691-6-6-6-2.762 0-5-2.238-5-5s2.238-5 5-5c3.309 0 6-2.691 6-6 0-2.762 2.238-5 5-5s5 2.238 5 5c0 3.309 2.691 6 6 6 2.762 0 5 2.238 5 5s-2.238 5-5 5c-3.309 0-6 2.691-6 6 0 2.761-2.239 5-5 5z"/></g></g></g></svg>