<?xml version="1.0" encoding="utf-8"?>
<!-- Generator: Adobe Illustrator 21.1.0, SVG Export Plug-In . SVG Version: 6.00 Build 0)  -->
<svg version="1.1" id="Capa_1" xmlns="http://www.w3.org/2000/svg" xmlns:xlink="http://www.w3.org/1999/xlink" x="0px" y="0px"
	 viewBox="0 0 512 512" style="enable-background:new 0 0 512 512;" xml:space="preserve">
<style type="text/css">
	.st0{fill:#2A719B;}
	.st1{fill:#A9D2EA;}
	.st2{fill:#73AACF;}
	.st3{fill:#014073;}
	.st4{fill:#FF7EB8;}
</style>
<path class="st0" d="M499.6,407.5c-10.1,12.2-25.1,19.2-41,19.2H53.3c-15.8,0-30.8-7-41-19.2l195.6-163l20.3,13.9
	c16.7,11.5,38.8,11.5,55.5,0l20.3-13.9L499.6,407.5z"/>
<path class="st1" d="M502.6,108.6L304,244.5l-20.3,13.9c-16.7,11.5-38.8,11.5-55.5,0L208,244.5L9.4,108.4c10-14.4,26.4-23,43.9-23
	h405.3C476.3,85.2,492.8,94,502.6,108.6z"/>
<g>
	<path class="st2" d="M208,244.5l-195.6,163C4.4,397.9,0,385.8,0,373.3V138.7c-0.1-10.8,3.2-21.4,9.4-30.3L208,244.5z"/>
	<path class="st2" d="M512,138.7v234.7c0,12.5-4.4,24.6-12.4,34.1L304,244.5l198.6-135.9C508.8,117.4,512,127.9,512,138.7z"/>
</g>
<path class="st3" d="M458.7,426.7H53.3C23.9,426.7,0,402.8,0,373.3V138.7c0-29.4,23.9-53.3,53.3-53.3h405.3
	c29.4,0,53.3,23.9,53.3,53.3v234.7C512,402.8,488.1,426.7,458.7,426.7z M53.3,106.7c-17.6,0-32,14.4-32,32v234.7
	c0,17.6,14.4,32,32,32h405.3c17.6,0,32-14.4,32-32V138.7c0-17.6-14.4-32-32-32H53.3z"/>
<path class="st3" d="M256,277.5c-11.8,0-23.7-3.5-33.7-10.4l-175-119.6c-4.9-3.3-6.1-10-2.8-14.8c3.3-4.9,9.9-6.1,14.8-2.8
	l174.9,119.7c13,8.9,30.4,8.9,43.4,0l174.9-119.7c4.9-3.3,11.5-2.1,14.8,2.8c3.3,4.9,2.1,11.5-2.8,14.8L289.7,267.2
	C279.7,274.1,267.8,277.5,256,277.5z"/>
<path class="st3" d="M53.3,384c-3.1,0-6.1-1.3-8.2-3.8c-3.8-4.5-3.2-11.2,1.4-15l128-106.7c4.5-3.8,11.3-3.1,15,1.3
	c3.8,4.5,3.2,11.2-1.4,15l-128,106.7C58.2,383.2,55.7,384,53.3,384z"/>
<path class="st3" d="M458.7,384c-2.4,0-4.8-0.8-6.8-2.5l-128-106.7c-4.5-3.8-5.1-10.5-1.3-15c3.8-4.5,10.5-5.1,15-1.3l128,106.7
	c4.5,3.8,5.1,10.5,1.3,15C464.7,382.7,461.7,384,458.7,384z"/>
<path class="st4" d="M129.7,390.8h-24.8c-5.9,0-10.8-4.8-10.8-10.8s4.8-10.8,10.8-10.8h24.8c5.9,0,10.8,4.8,10.8,10.8
	S135.6,390.8,129.7,390.8z"/>
</svg>
