<?xml version="1.0" encoding="iso-8859-1"?>
<!-- Generator: Adobe Illustrator 21.0.0, SVG Export Plug-In . SVG Version: 6.00 Build 0)  -->
<svg version="1.1" id="Capa_1" xmlns="http://www.w3.org/2000/svg" xmlns:xlink="http://www.w3.org/1999/xlink" x="0px" y="0px"
	 viewBox="0 0 587.697 587.697" style="enable-background:new 0 0 587.697 587.697;" xml:space="preserve">
<g>
	<g>
		<g id="flat_23_">
			<path style="fill:#87CED9;" d="M60.796,60.796H0v374.91c0,16.79,13.608,30.398,30.398,30.398h486.37l70.929-70.929V60.796H60.796
				z"/>
			<polygon style="fill:#71C4D1;" points="121.592,466.104 516.768,466.104 587.697,395.175 587.697,60.796 526.9,60.796 			"/>
			<polygon style="fill:#4398D1;" points="516.768,466.104 516.768,395.175 587.697,395.175 			"/>
			<rect x="101.327" y="101.327" style="fill:#E34B87;" width="121.592" height="60.796"/>
			<rect x="101.327" y="222.919" style="fill:#E34B87;" width="121.592" height="60.796"/>
			<rect x="101.327" y="344.512" style="fill:#E34B87;" width="121.592" height="60.796"/>
			<rect x="303.981" y="101.327" style="fill:#E34B87;" width="121.592" height="60.796"/>
			<rect x="303.981" y="222.919" style="fill:#E34B87;" width="121.592" height="60.796"/>
			<rect x="303.981" y="344.512" style="fill:#E34B87;" width="121.592" height="60.796"/>
			<rect x="222.919" y="121.592" style="fill:#5EB3D1;" width="81.062" height="20.265"/>
			<rect x="222.919" y="243.185" style="fill:#5EB3D1;" width="81.062" height="20.265"/>
			<rect x="354.644" y="162.123" style="fill:#5EB3D1;" width="20.265" height="60.796"/>
			<rect x="151.99" y="283.716" style="fill:#5EB3D1;" width="20.265" height="60.796"/>
			<rect x="222.919" y="364.777" style="fill:#5EB3D1;" width="81.062" height="20.265"/>
			<rect x="455.971" y="91.194" style="fill:#5EB3D1;" width="81.062" height="20.265"/>
			<rect x="455.971" y="131.725" style="fill:#5EB3D1;" width="40.531" height="20.265"/>
			<rect x="455.971" y="212.787" style="fill:#5EB3D1;" width="81.062" height="20.265"/>
			<rect x="455.971" y="253.317" style="fill:#5EB3D1;" width="81.062" height="20.265"/>
			<rect x="455.971" y="344.512" style="fill:#5EB3D1;" width="81.062" height="20.265"/>
			<rect x="455.971" y="385.043" style="fill:#5EB3D1;" width="30.398" height="20.265"/>
			<rect x="516.768" y="131.725" style="fill:#5EB3D1;" width="20.265" height="20.265"/>
			<rect x="162.123" y="506.635" style="fill:#4398D1;" width="243.185" height="81.062"/>
			<rect x="162.123" y="557.298" style="fill:#3E8CC7;" width="243.185" height="30.398"/>
			<rect x="405.308" y="506.635" style="fill:#DADDDF;" width="40.531" height="81.062"/>
			<rect x="405.308" y="557.298" style="fill:#C1C7C9;" width="40.531" height="30.398"/>
			<path style="fill:#E34B87;" d="M466.104,506.635h-20.265v81.062h20.265c22.383,0,40.531-18.148,40.531-40.531
				C506.635,524.783,488.487,506.635,466.104,506.635z"/>
			<rect x="162.123" y="537.033" style="fill:#3269A1;" width="243.185" height="20.265"/>
			<polygon style="fill:#3269A1;" points="101.327,547.166 121.592,560.673 121.592,533.659 			"/>
			<polygon style="fill:#FDA72F;" points="162.123,506.635 121.592,533.659 121.592,560.673 162.123,587.697 			"/>
			<path style="fill:#4398D1;" d="M60.796,405.308H30.398C13.608,405.308,0,418.916,0,435.706l0,0V30.398
				C0,13.608,13.608,0,30.398,0h30.398V405.308z"/>
		</g>
	</g>
</g>
<g>
</g>
<g>
</g>
<g>
</g>
<g>
</g>
<g>
</g>
<g>
</g>
<g>
</g>
<g>
</g>
<g>
</g>
<g>
</g>
<g>
</g>
<g>
</g>
<g>
</g>
<g>
</g>
<g>
</g>
</svg>
