<svg xmlns="http://www.w3.org/2000/svg" xmlns:xlink="http://www.w3.org/1999/xlink" viewBox="0 0 21.99 3.15"><defs><style>.cls-1{fill:url(#linear-gradient);}.cls-2{opacity:0.35;fill:url(#linear-gradient-2);}</style><linearGradient id="linear-gradient" x1="65.98" y1="737.85" x2="137.87" y2="665.96" gradientTransform="translate(-89.57 15.76) rotate(-90) scale(0.14)" gradientUnits="userSpaceOnUse"><stop offset="0" stop-color="#daf8ff"/><stop offset="1" stop-color="#b3d4fc"/></linearGradient><linearGradient id="linear-gradient-2" x1="68.14" y1="733.72" x2="140.03" y2="661.83" gradientTransform="translate(-89.57 15.76) rotate(-90) scale(0.14)" gradientUnits="userSpaceOnUse"><stop offset="0" stop-color="#daf8ff"/><stop offset="0.54" stop-color="#d8f6ff"/><stop offset="0.74" stop-color="#d1f0fe"/><stop offset="0.88" stop-color="#c6e5fd"/><stop offset="0.99" stop-color="#b5d6fc"/><stop offset="1" stop-color="#b3d4fc"/></linearGradient></defs><title>Asset 1</title><g id="Layer_2" data-name="Layer 2"><g id="Layer_1-2" data-name="Layer 1"><path class="cls-1" d="M1.74,3C.61,2.64.2,1.52,1,.92A3.67,3.67,0,0,1,2.69.42a22.82,22.82,0,0,1,6,.31,44.64,44.64,0,0,0,6.62.12C19.52.73,21.76.22,22,.48S19.6,1.63,17.83,2.1a23.38,23.38,0,0,1-6.15,1c-2.49,0-2.57-.44-5.09-.37C3.81,2.79,2.85,3.4,1.74,3Z"/><path class="cls-2" d="M1.15,2.72C0,2.33-.39,1.21.44.61A3.67,3.67,0,0,1,2.1.11a22.82,22.82,0,0,1,6,.31,44.64,44.64,0,0,0,6.62.12c4.17-.12,6.42-.63,6.62-.37S19,1.32,17.24,1.79a23.38,23.38,0,0,1-6.15,1c-2.49,0-2.57-.44-5.09-.37C3.22,2.48,2.26,3.09,1.15,2.72Z"/></g></g></svg>