<svg id="icons" enable-background="new 0 0 64 64" height="512" viewBox="0 0 64 64" width="512" xmlns="http://www.w3.org/2000/svg"><path d="m1 18.005c0-1.11.89-2 2-2h4.01v4h-.01-3-2.99-.01z" fill="#d7e9ff"/><path d="m4 20.005v39 .99h-2.99v-39.99z" fill="#5c9eff"/><path d="m50.98 54.035v5.96h-46.98v-.99-39h3 .01v34h2.99 40.98z" fill="#94c1ff"/><path d="m6.99 12.005c0-1.1.899-2 2-2h4.04v4h-.04-2.99-2.99-.02z" fill="#d7e9ff"/><path d="m10 53.005v1h-2.99v-34-4-2h2.99z" fill="#5c9eff"/><path d="m56.98 48.045v5.96h-6-40.98v-1-39h2.99.04v33.99h2.99 40.96z" fill="#94c1ff"/><path d="m16.02 8.005v39.99h-2.99v-33.99-4-2z" fill="#5c9eff"/><path d="m62.98 6.005v2h-46.96-2.99-.02v-2c0-1.11.9-2 2-2h45.97c1.11 0 2 .89 2 2z" fill="#d7e9ff"/><path d="m63 8.005v39.99h-6.02-40.96v-39.99h46.96z" fill="#94c1ff"/><g fill="#116fff"><path d="m10.023 13.009c-.553 0-1.005-.447-1.005-1s.442-1 .994-1h.011c.552 0 1 .447 1 1s-.448 1-1 1z"/><path d="m56.979 55.003h-49.968c-.553 0-1-.447-1-1v-39.994c0-.553.447-1 1-1s1 .447 1 1v38.994h47.968v-4.961c0-.553.447-1 1-1s1 .447 1 1v5.961c0 .553-.448 1-1 1z"/><path d="m6.993 13.009c-.553 0-1-.447-1-1 0-1.654 1.346-3 3-3 .553 0 1 .447 1 1s-.447 1-1 1c-.552 0-1 .448-1 1 0 .553-.447 1-1 1z"/><path d="m6.993 15.009c-.553 0-1-.447-1-1v-2c0-.553.447-1 1-1s1 .447 1 1v2c0 .553-.447 1-1 1z"/><path d="m13.033 11.009h-4.04c-.553 0-1-.447-1-1s.447-1 1-1h4.04c.553 0 1 .447 1 1s-.447 1-1 1z"/><path d="m9.997 55.009c-.553 0-1-.447-1-1v-40.004c0-.553.447-1 1-1s1 .447 1 1v40.004c0 .553-.447 1-1 1z"/><path d="m12.993 15.009h-5.982c-.553 0-1-.447-1-1s.447-1 1-1h5.982c.553 0 1 .447 1 1s-.447 1-1 1z"/><path d="m7.011 55.003c-.553 0-1-.447-1-1v-39.994c0-.553.447-1 1-1s1 .447 1 1v39.994c0 .553-.448 1-1 1z"/><path d="m6.993 13.009c-.553 0-1-.447-1-1 0-1.654 1.346-3 3-3 .553 0 1 .447 1 1s-.447 1-1 1c-.552 0-1 .448-1 1 0 .553-.447 1-1 1z"/><path d="m6.993 15.009c-.553 0-1-.447-1-1v-2c0-.553.447-1 1-1s1 .447 1 1v2c0 .553-.447 1-1 1z"/><path d="m12.993 15.009h-5.982c-.553 0-1-.447-1-1s.447-1 1-1h5.982c.553 0 1 .447 1 1s-.447 1-1 1z"/><path d="m4.029 19.003c-.553 0-1.005-.447-1.005-1s.442-1 .994-1h.011c.552 0 1 .447 1 1s-.448 1-1 1z"/><path d="m50.984 60.997h-49.967c-.553 0-1-.447-1-1v-39.994c0-.553.447-1 1-1s1 .447 1 1v38.994h47.968v-4.961c0-.553.447-1 1-1s1 .447 1 1v5.961c-.001.553-.448 1-1.001 1z"/><path d="m.999 19.003c-.553 0-1-.447-1-1 0-1.654 1.346-3 3-3 .553 0 1 .447 1 1s-.447 1-1 1c-.552 0-1 .448-1 1 0 .553-.447 1-1 1z"/><path d="m.999 21.003c-.553 0-1-.447-1-1v-2c0-.553.447-1 1-1s1 .447 1 1v2c0 .553-.447 1-1 1z"/><path d="m7.011 17.003h-4.012c-.553 0-1-.447-1-1s.447-1 1-1h4.012c.553 0 1 .447 1 1s-.448 1-1 1z"/><path d="m4.003 61.003c-.553 0-1-.447-1-1v-40.004c0-.553.447-1 1-1s1 .447 1 1v40.004c0 .553-.447 1-1 1z"/><path d="m6.999 21.003h-5.982c-.553 0-1-.447-1-1s.447-1 1-1h5.982c.553 0 1 .447 1 1s-.447 1-1 1z"/><path d="m1.017 60.997c-.553 0-1-.447-1-1v-39.994c0-.553.447-1 1-1s1 .447 1 1v39.994c0 .553-.448 1-1 1z"/><path d="m.999 19.003c-.553 0-1-.447-1-1 0-1.654 1.346-3 3-3 .553 0 1 .447 1 1s-.447 1-1 1c-.552 0-1 .448-1 1 0 .553-.447 1-1 1z"/><path d="m.999 21.003c-.553 0-1-.447-1-1v-2c0-.553.447-1 1-1s1 .447 1 1v2c0 .553-.447 1-1 1z"/><path d="m6.999 21.003h-5.982c-.553 0-1-.447-1-1s.447-1 1-1h5.982c.553 0 1 .447 1 1s-.447 1-1 1z"/><path d="m16.02 48.997c-.553 0-1-.447-1-1v-39.998c0-.553.447-1 1-1s1 .447 1 1v39.998c0 .553-.448 1-1 1z"/><path d="m16.046 7.003c-.553 0-1.005-.447-1.005-1s.442-1 .994-1h.011c.552 0 1 .447 1 1s-.448 1-1 1z"/><path d="m19.046 7.003c-.553 0-1.005-.447-1.005-1s.442-1 .994-1h.011c.552 0 1 .447 1 1s-.448 1-1 1z"/><path d="m22.046 7.003c-.553 0-1.005-.447-1.005-1s.442-1 .994-1h.011c.552 0 1 .447 1 1s-.448 1-1 1z"/><path d="m63.001 48.997h-49.968c-.553 0-1-.447-1-1v-39.994c0-.553.447-1 1-1h49.968c.553 0 1 .447 1 1v39.994c0 .553-.447 1-1 1zm-48.968-2h47.968v-37.994h-47.968z"/><path d="m13.016 7.003c-.553 0-1-.447-1-1 0-1.654 1.346-3 3-3 .553 0 1 .447 1 1s-.447 1-1 1c-.552 0-1 .448-1 1 0 .553-.448 1-1 1z"/><path d="m13.016 9.003c-.553 0-1-.447-1-1v-2c0-.553.447-1 1-1s1 .447 1 1v2c0 .553-.448 1-1 1z"/><path d="m62.983 7.003c-.553 0-1-.447-1-1 0-.552-.448-1-1-1-.553 0-1-.447-1-1s.447-1 1-1c1.654 0 3 1.346 3 3 0 .553-.447 1-1 1z"/><path d="m62.983 9.003c-.553 0-1-.447-1-1v-2c0-.553.447-1 1-1s1 .447 1 1v2c0 .553-.447 1-1 1z"/><path d="m60.983 5.003h-45.967c-.553 0-1-.447-1-1s.447-1 1-1h45.968c.553 0 1 .447 1 1s-.448 1-1.001 1z"/><path d="m39.021 12.999h-19.001c-.553 0-1-.447-1-1s.447-1 1-1h19.002c.553 0 1 .447 1 1s-.448 1-1.001 1z"/><path d="m42.021 16.999h-20.001c-.553 0-1-.447-1-1s.447-1 1-1h20.002c.553 0 1 .447 1 1s-.448 1-1.001 1z"/><path d="m36.023 41.015h-14.003c-.553 0-1-.447-1-1s.447-1 1-1h14.004c.553 0 1 .447 1 1s-.448 1-1.001 1z"/><path d="m48.021 16.999h-2c-.553 0-1-.447-1-1s.447-1 1-1h2c.553 0 1 .447 1 1s-.447 1-1 1z"/><path d="m26.02 45.003h-6c-.553 0-1-.447-1-1s.447-1 1-1h6c.553 0 1 .447 1 1s-.448 1-1 1z"/><path d="m28.02 20.999h-4c-.553 0-1-.447-1-1s.447-1 1-1h4c.553 0 1 .447 1 1s-.448 1-1 1z"/><path d="m53.021 20.999h-21.001c-.553 0-1-.447-1-1s.447-1 1-1h21.002c.553 0 1 .447 1 1s-.448 1-1.001 1z"/><path d="m47.021 24.999h-23.001c-.553 0-1-.447-1-1s.447-1 1-1h23.002c.553 0 1 .447 1 1s-.448 1-1.001 1z"/><path d="m37.021 28.999h-13.001c-.553 0-1-.447-1-1s.447-1 1-1h13.002c.553 0 1 .447 1 1s-.448 1-1.001 1z"/><path d="m46.03 37.007h-22.01c-.553 0-1-.447-1-1s.447-1 1-1h22.01c.553 0 1 .447 1 1s-.447 1-1 1z"/><path d="m49.023 32.999h-18.002c-.553 0-1-.447-1-1s.447-1 1-1h18.003c.553 0 1 .447 1 1s-.448 1-1.001 1z"/><path d="m27.021 32.999h-3.001c-.553 0-1-.447-1-1s.447-1 1-1h3.001c.553 0 1 .447 1 1s-.448 1-1 1z"/><path d="m55.021 24.999h-4c-.553 0-1-.447-1-1s.447-1 1-1h4c.553 0 1 .447 1 1s-.447 1-1 1z"/></g></svg>