<?xml version="1.0" standalone="no"?>
<!DOCTYPE svg PUBLIC "-//W3C//DTD SVG 20010904//EN"
 "http://www.w3.org/TR/2001/REC-SVG-20010904/DTD/svg10.dtd">
<svg version="1.0" xmlns="http://www.w3.org/2000/svg"
 width="1429.000000pt" height="1429.000000pt" viewBox="0 0 1429.000000 1429.000000"
 preserveAspectRatio="xMidYMid meet">
<metadata>
Created by potrace 1.11, written by Peter Selinger 2001-2013
</metadata>
<g transform="translate(0.000000,1429.000000) scale(0.100000,-0.100000)"
fill="#000000" stroke="none">
<path d="M3664 11296 c-137 -43 -222 -170 -212 -319 8 -119 64 -204 170 -257
151 -75 340 -14 417 135 126 246 -110 524 -375 441z"/>
<path d="M6850 10993 c-271 -26 -416 -50 -635 -103 -592 -143 -1183 -434
-1677 -828 -162 -129 -483 -447 -602 -597 -348 -438 -553 -896 -633 -1412 -24
-157 -24 -632 0 -798 83 -561 265 -968 529 -1179 105 -83 357 -212 458 -232
194 -41 379 16 760 232 55 31 103 54 105 52 3 -3 0 -29 -6 -59 -14 -72 -14
-314 1 -418 30 -215 103 -436 238 -715 138 -284 287 -534 419 -703 78 -101
123 -137 168 -136 23 1 40 -6 56 -23 17 -18 25 -21 36 -13 21 18 16 82 -26
315 -71 391 -93 596 -112 1025 -18 402 4 699 74 977 l22 87 65 12 c36 6 66 10
67 9 1 -1 -4 -38 -11 -81 -59 -343 -1 -684 190 -1126 151 -352 352 -708 459
-815 41 -40 51 -46 81 -42 30 3 39 0 56 -24 16 -23 23 -26 34 -17 21 17 18 93
-15 353 -17 127 -36 299 -42 381 -17 197 -17 821 -1 995 12 129 40 328 48 341
2 3 26 2 53 -3 46 -10 49 -12 55 -47 3 -20 6 -55 6 -78 0 -61 35 -256 65 -357
130 -448 521 -1171 676 -1251 14 -8 35 -12 45 -9 12 3 28 -4 43 -20 19 -20 27
-23 38 -15 20 17 16 88 -16 307 -17 108 -37 265 -46 347 -17 170 -38 613 -33
722 l3 72 325 -185 c552 -314 788 -419 1029 -459 683 -114 1252 441 1475 1437
110 492 115 1048 11 1474 -179 732 -664 1394 -1385 1887 -136 93 -421 261
-580 341 -412 210 -846 336 -1290 376 -105 9 -496 12 -580 3z"/>
<path d="M11235 10865 c-214 -47 -389 -211 -457 -428 -34 -106 -31 -261 5
-372 65 -195 238 -359 433 -409 79 -21 241 -21 318 -1 150 39 300 153 379 286
107 183 115 411 19 602 -45 91 -169 217 -259 265 -126 66 -296 89 -438 57z"/>
<path d="M2211 7754 c-201 -54 -341 -238 -341 -449 0 -183 99 -339 268 -422
75 -38 77 -38 196 -38 119 0 122 1 198 37 176 84 270 232 270 423 0 102 -21
175 -73 257 -105 163 -324 244 -518 192z"/>
<path d="M11102 7440 c-98 -60 -96 -210 4 -267 110 -63 244 22 232 147 -6 57
-35 102 -82 124 -47 22 -114 20 -154 -4z"/>
</g>
</svg>
